<?xml version="1.0" standalone="no"?>
<!DOCTYPE svg PUBLIC "-//W3C//DTD SVG 20010904//EN"
 "http://www.w3.org/TR/2001/REC-SVG-20010904/DTD/svg10.dtd">
<svg version="1.0" xmlns="http://www.w3.org/2000/svg"
 width="495.000000pt" height="495.000000pt" viewBox="0 0 495.000000 495.000000"
 preserveAspectRatio="xMidYMid meet">
<metadata>
Created by potrace 1.14, written by Peter Selinger 2001-2017
</metadata>
<g transform="translate(0.000000,495.000000) scale(0.100000,-0.100000)"
fill="#000000" stroke="none">
<path d="M208 4245 c-2 -2 -23 -5 -48 -8 -61 -7 -95 -22 -114 -48 -23 -34 -4
-65 72 -113 39 -25 184 -78 242 -90 14 -2 48 -9 77 -15 65 -13 149 -22 233
-26 103 -4 284 -59 352 -107 37 -25 129 -227 277 -603 29 -71 56 -139 61 -150
17 -37 190 -507 255 -695 82 -235 224 -654 222 -655 -1 -1 -36 -26 -77 -57
-133 -97 -179 -167 -187 -283 -8 -119 35 -232 112 -290 19 -15 32 -32 29 -37
-4 -5 -6 -37 -6 -71 0 -123 70 -235 183 -293 44 -23 69 -28 134 -30 107 -3
171 21 240 90 73 73 97 131 99 234 l1 82 683 -1 683 -1 -2 -57 c-6 -139 61
-254 186 -319 43 -23 62 -27 140 -27 71 0 100 5 137 22 66 30 131 94 164 161
23 48 28 71 28 139 1 82 1 83 28 89 67 14 87 114 33 162 -14 12 -34 22 -43 23
-9 1 -48 2 -87 3 -49 2 -85 10 -120 26 -76 35 -182 37 -260 3 l-60 -26 -823
-1 -824 -1 -51 24 c-77 36 -200 36 -278 0 -47 -23 -74 -27 -111 -20 -10 2 -22
62 -20 99 3 50 27 83 103 137 111 80 140 106 155 144 l14 36 1265 0 c1246 1
1265 1 1285 20 17 18 32 68 45 155 7 46 36 225 41 250 2 14 7 41 10 60 3 19 7
46 10 60 4 25 91 553 99 600 2 14 11 66 19 115 9 50 18 108 21 130 4 22 8 47
10 55 2 8 7 33 10 55 3 23 7 50 9 62 15 76 17 113 7 132 -22 40 -25 40 -286
56 -49 3 -121 7 -160 10 -38 3 -108 7 -155 10 -47 2 -116 7 -155 10 -38 3
-106 7 -150 10 -157 9 -241 15 -330 21 -97 7 -136 9 -290 18 -55 3 -131 8
-170 11 -38 3 -104 8 -145 10 -41 2 -104 6 -140 9 -36 3 -112 8 -170 11 -58 4
-123 8 -145 10 -22 1 -94 6 -160 10 -66 4 -136 9 -155 10 -19 1 -89 5 -155 9
-66 3 -142 9 -170 11 -27 3 -93 8 -145 11 -52 3 -120 7 -150 9 -30 2 -102 6
-160 10 -58 3 -113 7 -123 9 -13 2 -34 38 -69 117 -28 63 -61 131 -74 151 -43
68 -120 113 -304 176 -63 22 -160 56 -215 75 -118 41 -262 67 -391 71 -52 2
-95 2 -96 1z m1450 -766 c5 -26 -56 -119 -74 -112 -7 3 -14 9 -14 14 0 5 -11
27 -25 49 -29 46 -29 45 -11 62 19 20 120 9 124 -13z m233 -6 c12 -12 6 -26
-38 -97 l-25 -38 -34 57 c-47 77 -41 95 32 91 30 -1 59 -7 65 -13z m243 -13
c8 -8 -52 -120 -64 -120 -11 0 -72 111 -67 123 5 13 116 11 131 -3z m233 -13
c6 -7 -55 -117 -65 -117 -11 1 -73 111 -67 121 6 9 122 5 132 -4z m191 -8 c28
-2 52 -4 52 -6 0 -8 -63 -103 -68 -103 -4 0 -22 28 -40 61 -28 51 -31 60 -15
55 10 -3 42 -6 71 -7z m276 -31 c-1 -15 -54 -102 -58 -96 -2 1 -17 29 -35 60
l-32 57 63 -3 c46 -3 63 -7 62 -18z m201 0 c19 -1 35 -5 35 -9 0 -4 -12 -26
-27 -48 l-27 -41 -29 46 c-22 36 -26 49 -16 55 7 4 16 6 21 3 4 -2 23 -5 43
-6z m270 -20 c2 -2 -10 -23 -25 -46 l-27 -44 -27 45 c-14 25 -26 47 -26 50 0
4 102 -1 105 -5z m-1788 -58 c30 -51 31 -54 15 -78 l-16 -25 -14 34 c-8 19
-21 49 -28 67 -34 79 -5 81 43 2z m227 -1 l36 -61 -36 -60 -37 -60 -33 53
c-19 29 -34 59 -34 67 0 11 60 122 66 122 1 0 18 -27 38 -61z m250 -11 l29
-55 -32 -56 c-18 -31 -36 -57 -39 -57 -6 0 -56 80 -70 111 -5 11 68 120 76
115 4 -2 20 -29 36 -58z m1525 21 l-21 -41 -24 35 c-13 20 -24 38 -24 41 0 4
20 6 45 6 l45 0 -21 -41z m-1290 -43 l23 -45 -33 -55 c-19 -31 -36 -56 -39
-56 -3 0 -20 25 -39 56 -36 61 -37 55 13 142 17 30 20 31 35 18 9 -8 27 -35
40 -60z m234 15 l35 -59 -35 -62 c-19 -34 -36 -60 -38 -58 -2 2 -19 29 -39 61
l-34 58 36 59 c20 33 38 60 38 60 1 0 17 -26 37 -59z m1305 44 c5 -4 -30 -65
-38 -65 -6 0 -40 59 -40 70 0 8 70 4 78 -5z m-1073 -56 l35 -60 -32 -55 c-18
-30 -37 -53 -43 -51 -12 4 -63 87 -64 105 -1 12 59 122 66 122 1 0 18 -27 38
-61z m244 1 c17 -28 31 -55 31 -61 0 -7 -14 -36 -31 -66 -36 -62 -40 -61 -82
19 l-25 48 31 55 c18 30 35 54 39 55 3 0 20 -23 37 -50z m233 -120 c-16 -30
-36 -55 -42 -55 -6 0 -26 25 -42 55 l-31 55 37 59 38 58 35 -58 36 -59 -31
-55z m838 162 c0 -8 -33 -52 -39 -52 -4 0 -14 13 -24 29 l-17 30 40 -2 c22 -1
40 -3 40 -5z m-593 -56 l31 -54 -24 -47 c-41 -82 -43 -83 -81 -24 -18 29 -33
59 -33 66 0 16 59 113 68 113 4 0 21 -25 39 -54z m823 35 c0 -4 -6 -15 -13
-25 -13 -17 -14 -17 -30 7 -9 13 -14 27 -11 29 7 7 54 -3 54 -11z m-592 -46
c36 -60 36 -56 -16 -139 l-24 -39 -34 54 c-18 30 -34 59 -34 64 0 15 59 115
68 115 4 0 22 -25 40 -55z m250 -11 l30 -51 -29 -49 c-16 -27 -30 -53 -33 -59
-5 -14 -29 12 -59 65 l-26 45 36 58 c19 32 39 55 43 50 5 -4 22 -31 38 -59z
m232 1 c29 -51 31 -58 18 -85 -7 -17 -16 -30 -20 -30 -5 0 -8 -6 -8 -13 0 -8
-8 -21 -18 -30 -17 -16 -20 -14 -51 43 l-32 60 33 55 c18 30 36 55 40 55 3 0
21 -25 38 -55z m250 -9 l30 -54 -32 -56 c-18 -30 -36 -56 -40 -56 -9 0 -68 97
-68 112 0 19 63 118 71 112 4 -2 22 -29 39 -58z m95 52 c3 -3 0 -10 -8 -16
-10 -8 -16 -6 -25 8 -11 17 -10 20 8 17 11 -2 22 -6 25 -9z m149 -82 l18 -34
-33 -56 c-19 -31 -37 -56 -41 -56 -7 0 -13 11 -54 86 -16 31 -16 32 17 88 l34
57 20 -25 c11 -14 28 -41 39 -60z m78 52 c-10 -10 -15 -10 -22 2 -6 9 -5 17 3
22 18 11 33 -10 19 -24z m-3094 -110 c7 -13 21 -38 31 -57 19 -32 19 -36 4
-65 -32 -63 -35 -62 -64 14 -26 67 -27 75 -13 101 18 35 27 36 42 7z m260 -34
c18 -32 31 -60 30 -63 -13 -28 -64 -111 -68 -111 -7 0 -70 106 -70 118 0 12
63 111 70 112 3 0 20 -25 38 -56z m235 -15 l31 -55 -35 -57 c-18 -31 -36 -57
-39 -57 -3 0 -20 26 -38 57 -30 51 -32 58 -19 82 30 58 52 91 61 88 4 -1 22
-28 39 -58z m267 -56 c0 -7 -15 -37 -34 -68 l-34 -57 -36 62 c-39 67 -40 62
12 144 l24 39 34 -54 c18 -30 34 -59 34 -66z m208 42 l33 -55 -33 -60 c-18
-33 -36 -60 -39 -60 -4 0 -14 15 -24 33 -9 17 -24 44 -32 58 -16 25 -15 28 16
82 18 32 36 57 39 57 4 0 22 -25 40 -55z m244 -5 l30 -55 -33 -57 c-19 -32
-36 -58 -39 -58 -3 0 -20 27 -39 60 l-33 61 33 55 c18 30 37 53 42 51 5 -1 22
-27 39 -57z m233 -4 l35 -55 -21 -38 c-11 -21 -28 -49 -38 -62 l-18 -24 -32
55 c-17 31 -31 62 -31 69 0 8 11 31 25 51 14 20 25 42 25 47 0 25 23 7 55 -43z
m241 -6 l31 -53 -35 -60 c-33 -54 -37 -58 -48 -41 -8 11 -17 24 -21 29 -5 6
-16 25 -25 44 -15 33 -15 35 16 87 17 29 35 52 41 51 5 -2 24 -28 41 -57z
m230 -2 c16 -29 30 -56 32 -60 4 -8 -60 -118 -68 -118 -3 0 -21 25 -39 57 -30
49 -32 58 -21 77 8 12 23 38 34 59 11 20 23 37 26 37 4 0 20 -24 36 -52z m243
-5 l34 -57 -29 -54 c-16 -29 -33 -56 -37 -59 -10 -6 -25 14 -57 71 l-22 41 34
57 c18 32 35 58 38 58 3 0 21 -26 39 -57z m240 -3 c17 -28 31 -56 31 -63 0 -6
-16 -36 -34 -65 -37 -57 -35 -58 -80 21 l-27 47 33 55 c18 30 36 55 39 55 4 0
21 -23 38 -50z m258 -29 l21 -36 -31 -54 c-18 -29 -36 -54 -42 -54 -5 0 -24
24 -42 53 l-32 53 26 46 c43 75 45 77 63 51 8 -13 25 -39 37 -59z m238 -22
l17 -37 -37 -57 -37 -58 -34 61 -35 62 33 60 33 60 22 -27 c12 -14 29 -43 38
-64z m191 59 c-3 -18 -8 -53 -11 -78 -3 -25 -7 -54 -10 -65 -2 -11 -4 -22 -4
-25 -1 -3 -13 14 -27 38 l-25 42 36 60 c20 33 39 60 42 60 3 0 3 -15 -1 -32z
m-2916 -206 c0 -4 -16 -33 -34 -65 l-33 -58 -31 49 c-17 27 -32 58 -34 68 -1
11 12 43 30 73 l33 54 35 -57 c19 -31 34 -60 34 -64z m197 52 c36 -61 36 -57
-14 -138 l-25 -38 -16 23 c-20 29 -52 90 -52 100 0 11 62 109 69 109 3 0 21
-25 38 -56z m247 -6 c14 -26 26 -53 26 -60 0 -17 -58 -108 -68 -108 -5 0 -19
20 -31 45 -12 24 -26 47 -31 50 -12 7 -4 28 33 88 16 27 33 45 37 40 5 -4 20
-29 34 -55z m233 -18 l32 -53 -22 -37 c-55 -92 -49 -90 -89 -23 l-35 60 31 56
c17 31 36 55 41 54 6 -2 24 -27 42 -57z m241 6 c17 -30 32 -59 32 -65 0 -14
-60 -111 -68 -111 -4 0 -22 25 -39 56 l-33 56 33 59 c17 32 34 59 37 59 3 0
20 -24 38 -54z m238 -10 l31 -54 -31 -56 c-17 -31 -35 -56 -41 -56 -6 0 -25
24 -43 54 l-32 54 32 56 c18 31 38 56 43 55 6 0 24 -24 41 -53z m243 -3 l33
-58 -22 -41 c-13 -22 -29 -49 -36 -59 -14 -18 -14 -18 -28 0 -7 10 -24 37 -36
60 l-23 42 34 56 c18 32 36 57 39 57 3 0 21 -26 39 -57z m231 -17 l30 -54 -32
-56 c-18 -30 -36 -56 -39 -56 -8 0 -69 99 -69 112 0 19 61 118 70 113 5 -3 23
-30 40 -59z m480 -1 l31 -55 -34 -61 -35 -61 -36 57 c-21 31 -36 62 -34 69 7
24 63 114 70 110 4 -2 21 -29 38 -59z m-237 2 c15 -29 27 -57 27 -62 0 -6 -15
-34 -34 -64 l-33 -53 -37 61 -37 61 33 55 c18 30 37 55 43 55 5 0 22 -24 38
-53z m488 -14 l28 -48 -26 -45 c-44 -77 -46 -78 -82 -21 -17 28 -31 58 -31 66
0 8 14 38 31 66 35 56 37 56 80 -18z m224 -3 l36 -60 -36 -60 -37 -61 -34 53
c-18 29 -34 59 -34 66 0 12 60 122 67 122 1 0 18 -27 38 -60z m238 11 c42 -63
42 -81 6 -140 -36 -57 -37 -57 -79 16 l-28 48 31 58 c17 31 34 57 38 57 3 0
18 -18 32 -39z m-2745 -138 l34 -57 -30 -56 c-17 -30 -35 -55 -42 -55 -6 0
-25 25 -42 56 l-31 56 34 56 c19 31 36 56 39 57 3 0 20 -26 38 -57z m241 0
l33 -58 -30 -55 c-16 -30 -34 -56 -39 -57 -4 -2 -24 22 -42 54 -33 54 -34 57
-18 82 9 14 24 41 34 59 9 17 19 32 23 32 3 0 21 -26 39 -57z m236 -14 l35
-61 -36 -60 -37 -60 -33 53 c-19 30 -34 60 -34 67 0 12 60 121 67 122 1 0 18
-27 38 -61z m243 -6 l33 -56 -23 -43 c-12 -23 -28 -50 -35 -60 -12 -17 -14
-17 -28 2 -8 10 -24 37 -36 60 l-22 41 34 56 c18 31 36 57 39 57 3 0 20 -26
38 -57z m245 -24 l26 -46 -35 -57 c-20 -31 -37 -56 -39 -56 -7 0 -65 101 -65
114 0 8 14 38 32 66 35 57 37 57 81 -21z m232 16 l35 -56 -32 -59 c-18 -33
-36 -60 -39 -60 -9 0 -69 100 -69 116 0 13 58 114 66 114 2 0 19 -25 39 -55z
m265 -72 c0 -9 -52 -107 -65 -121 -4 -5 -67 102 -67 117 -1 9 13 40 32 69 l33
54 33 -54 c19 -29 34 -58 34 -65z m198 73 c45 -66 46 -76 12 -129 -16 -26 -30
-52 -30 -58 0 -19 -19 2 -50 56 l-31 55 33 60 c18 33 34 60 35 60 1 0 15 -20
31 -44z m256 -28 l29 -53 -33 -59 -34 -59 -20 26 c-12 14 -29 42 -39 60 l-19
35 36 56 c20 32 40 55 44 52 4 -2 20 -28 36 -58z m240 1 l30 -55 -33 -58 c-37
-64 -38 -64 -82 11 l-28 47 32 58 c17 32 36 57 41 55 6 -2 24 -28 40 -58z
m240 -18 l27 -50 -32 -56 c-17 -31 -36 -54 -41 -53 -6 2 -24 28 -40 58 l-31
55 34 57 c38 63 42 63 83 -11z m239 -2 l31 -55 -35 -57 c-18 -31 -36 -57 -39
-57 -4 0 -57 87 -68 112 -5 11 62 118 71 115 5 -1 23 -28 40 -58z m-2511 -120
c14 -24 27 -51 27 -59 0 -8 -14 -39 -33 -69 l-33 -53 -37 61 -37 61 33 55 c18
30 37 54 43 52 5 -2 22 -23 37 -48z m232 -12 l34 -58 -35 -60 c-19 -32 -37
-59 -39 -59 -1 0 -18 28 -37 61 l-35 61 35 59 c20 33 37 58 39 57 1 -2 18 -29
38 -61z m245 -4 l34 -56 -23 -42 c-12 -23 -29 -50 -36 -60 -13 -18 -15 -18
-27 -1 -7 10 -23 37 -36 61 l-23 44 33 55 c19 31 36 56 39 56 3 0 21 -25 39
-57z m235 -14 l30 -55 -33 -58 c-38 -65 -39 -65 -85 15 l-26 45 20 35 c11 18
25 44 32 57 16 31 28 24 62 -39z m246 -4 l31 -54 -32 -55 c-17 -31 -35 -56
-39 -56 -9 0 -70 95 -70 109 0 16 65 119 72 115 4 -3 21 -29 38 -59z m244 -29
l18 -34 -32 -57 c-18 -31 -36 -55 -42 -53 -5 2 -23 28 -39 58 l-31 55 34 57
33 57 20 -24 c11 -13 28 -40 39 -59z m222 37 c10 -21 25 -45 31 -54 11 -13 9
-24 -13 -65 -43 -82 -47 -83 -83 -21 -17 30 -31 59 -31 66 0 15 60 111 69 111
4 0 16 -17 27 -37z m243 -22 l31 -58 -33 -56 c-17 -31 -34 -56 -37 -57 -7 0
-70 106 -70 118 0 14 61 112 70 112 4 0 21 -26 39 -59z m244 0 l35 -59 -32
-53 c-17 -29 -36 -54 -41 -56 -6 -2 -25 23 -42 54 l-32 58 35 58 c20 31 37 57
39 57 1 0 18 -27 38 -59z m244 -33 l21 -39 -31 -54 c-18 -30 -35 -55 -38 -55
-10 0 -69 94 -69 110 0 7 14 38 32 68 l32 56 15 -23 c9 -13 26 -41 38 -63z
m225 34 c42 -63 43 -76 6 -137 -18 -30 -35 -55 -38 -55 -3 0 -20 27 -37 59
l-33 59 32 56 c18 31 35 56 39 56 3 0 18 -17 31 -38z m226 1 c8 -24 -6 -149
-21 -197 -2 -5 -20 17 -39 50 l-37 59 32 57 c35 64 50 71 65 31z m-2707 -225
c-7 -17 -10 -19 -15 -8 -37 101 -46 127 -46 140 0 8 16 -13 35 -47 28 -48 33
-66 26 -85z m220 55 l28 -47 -26 -45 c-45 -78 -46 -79 -82 -22 -17 28 -31 58
-31 66 0 8 14 38 31 66 35 56 37 56 80 -18z m236 11 l33 -56 -33 -59 c-17 -32
-34 -59 -37 -59 -3 0 -21 26 -41 57 l-36 57 35 58 c19 32 37 58 41 58 3 0 21
-25 38 -56z m221 16 c12 -16 22 -33 22 -38 0 -5 7 -15 15 -22 14 -11 12 -20
-16 -69 -17 -31 -35 -60 -39 -64 -4 -5 -23 18 -43 49 l-35 58 31 58 c18 32 35
58 38 58 3 0 15 -13 27 -30z m260 -36 l30 -52 -35 -58 c-19 -33 -36 -60 -37
-61 -1 -1 -18 25 -38 58 l-36 61 36 60 c19 32 38 55 43 51 4 -4 21 -31 37 -59z
m231 -4 c17 -28 31 -56 31 -63 0 -6 -16 -36 -34 -66 l-34 -54 -24 39 c-52 83
-52 79 -16 139 18 30 36 55 39 55 4 0 21 -23 38 -50z m221 40 c0 -6 13 -31 29
-56 l29 -47 -36 -59 -35 -60 -19 24 c-10 12 -26 39 -37 59 l-19 36 25 44 c13
24 29 50 35 56 13 16 28 17 28 3z m277 -70 l22 -36 -32 -54 c-18 -29 -37 -55
-42 -57 -6 -1 -24 23 -42 55 l-31 58 36 58 36 59 15 -23 c9 -13 26 -40 38 -60z
m222 23 l35 -57 -31 -55 c-34 -61 -49 -72 -60 -44 -4 10 -17 35 -31 55 l-24
36 34 61 c18 33 35 61 38 61 3 0 21 -26 39 -57z m236 -13 c40 -65 40 -60 -13
-144 l-24 -39 -34 54 c-18 30 -34 59 -34 66 0 9 61 122 67 123 1 0 18 -27 38
-60z m248 -12 c31 -51 31 -49 -20 -132 l-25 -38 -35 58 c-38 64 -38 65 13 146
19 30 29 38 33 28 3 -8 19 -36 34 -62z m224 15 c42 -72 44 -79 22 -106 -10
-14 -19 -28 -19 -31 0 -4 -7 -18 -17 -32 l-16 -25 -33 53 c-19 29 -34 59 -34
66 0 11 60 122 66 122 1 0 15 -21 31 -47z m-2508 -143 c37 -60 37 -64 8 -113
l-23 -37 -26 75 c-22 62 -24 79 -15 100 7 14 15 25 19 25 3 0 20 -23 37 -50z
m265 -34 l18 -34 -33 -56 c-19 -31 -38 -55 -42 -53 -5 1 -23 28 -40 58 l-31
55 35 57 34 57 20 -25 c11 -13 28 -40 39 -59z m220 13 l30 -55 -34 -56 c-39
-65 -43 -64 -84 12 l-27 50 33 55 c18 30 37 54 42 52 6 -2 24 -28 40 -58z
m255 -22 l20 -37 -32 -55 c-33 -57 -43 -62 -61 -29 -6 10 -19 31 -28 46 -24
35 -23 39 14 104 l31 56 18 -23 c10 -13 27 -41 38 -62z m221 8 c34 -59 34 -56
-17 -139 -28 -43 -26 -44 -73 41 l-23 41 32 56 c18 31 36 56 41 56 5 0 23 -25
40 -55z m253 -15 c27 -49 28 -46 -21 -124 -27 -44 -33 -42 -75 34 l-25 46 35
58 c40 65 41 64 86 -14z m233 4 l28 -52 -34 -56 c-19 -31 -37 -56 -40 -56 -3
0 -21 26 -39 57 -26 46 -31 61 -22 75 6 10 17 28 24 41 20 37 40 58 47 50 4
-5 20 -31 36 -59z m243 1 c34 -61 35 -59 -17 -138 l-25 -38 -34 53 c-22 36
-31 60 -28 76 7 28 54 102 65 102 5 0 22 -25 39 -55z m227 -12 l31 -58 -32
-53 c-18 -29 -36 -53 -40 -53 -4 0 -22 24 -40 53 l-32 53 31 58 c17 31 35 57
41 57 6 0 24 -26 41 -57z m243 0 l35 -57 -31 -55 c-17 -30 -35 -57 -40 -58 -4
-2 -23 22 -41 52 l-33 55 32 60 c17 33 35 60 38 60 4 0 22 -26 40 -57z m261
-63 c0 -8 -15 -39 -34 -69 l-33 -53 -37 61 -37 61 37 61 37 61 33 -53 c19 -30
34 -61 34 -69z m136 4 c-5 -26 -10 -34 -18 -26 -8 8 -7 20 2 42 16 39 24 31
16 -16z m-2426 -91 l28 -48 -21 -37 c-16 -29 -27 -38 -47 -38 -29 0 -54 22
-65 58 -8 28 53 138 68 123 5 -5 22 -31 37 -58z m235 -7 c29 -54 29 -56 13
-83 -13 -22 -25 -29 -57 -31 -27 -2 -41 1 -41 9 0 7 -7 20 -16 30 -14 16 -14
20 2 51 23 45 56 88 63 83 3 -2 19 -28 36 -59z m234 14 c35 -57 38 -76 15
-108 -24 -35 -82 -27 -106 14 -18 30 -18 30 18 87 20 31 37 57 39 57 2 0 17
-23 34 -50z m245 -31 c25 -45 27 -54 15 -75 -10 -20 -20 -24 -55 -24 -35 0
-47 5 -60 24 -15 24 -14 28 18 85 37 67 41 67 82 -10z m240 -2 c39 -70 31 -91
-36 -95 -34 -2 -48 2 -63 18 -18 20 -18 22 -2 48 10 15 25 42 34 60 9 18 21
31 26 29 5 -1 23 -28 41 -60z m249 -17 c35 -61 22 -79 -52 -77 -73 3 -80 22
-34 100 39 66 34 67 86 -23z m235 10 c26 -46 29 -58 18 -72 -18 -25 -108 -23
-124 3 -10 16 -6 28 25 79 21 33 41 56 44 52 4 -4 21 -32 37 -62z m232 -5 c18
-31 30 -62 27 -69 -8 -21 -123 -21 -131 0 -6 15 51 123 66 124 3 0 21 -25 38
-55z m237 0 c18 -31 30 -62 27 -69 -8 -20 -123 -21 -130 -1 -6 14 51 125 64
125 4 0 21 -25 39 -55z m237 -12 c19 -31 33 -59 31 -63 -5 -9 -123 -12 -136
-4 -5 3 -4 14 3 27 19 37 58 97 62 97 3 0 20 -25 40 -57z m233 13 c32 -66 23
-84 -43 -85 -37 0 -54 4 -54 12 0 18 24 67 33 67 4 0 7 6 7 13 0 13 19 37 30
37 3 0 16 -20 27 -44z"/>
</g>
</svg>
